<?xml version="1.0" encoding="utf-8"?>
<!-- Generator: Adobe Illustrator 15.0.0, SVG Export Plug-In . SVG Version: 6.00 Build 0)  -->
<!DOCTYPE svg PUBLIC "-//W3C//DTD SVG 1.1 Tiny//EN" "http://www.w3.org/Graphics/SVG/1.1/DTD/svg11-tiny.dtd">
<svg version="1.1" baseProfile="tiny" id="Layer_1" xmlns="http://www.w3.org/2000/svg" xmlns:xlink="http://www.w3.org/1999/xlink"
	 x="0px" y="0px" width="300px" height="149px" viewBox="0 0 300 149" xml:space="preserve">
<g>
	<rect fill="#010101" width="99.407" height="148.041"/>
	<path fill="#FFFFFF" d="M80.221,33.757c0,10.941-8.871,19.812-19.813,19.812c-10.94,0-19.811-8.87-19.811-19.812
		s8.87-19.812,19.811-19.812C71.35,13.945,80.221,22.815,80.221,33.757"/>
	<path fill="#FBD132" d="M59.296,26.33c0,10.635-8.621,19.255-19.256,19.255c-10.634,0-19.255-8.621-19.255-19.255
		c0-10.634,8.621-19.256,19.255-19.256C50.675,7.074,59.296,15.695,59.296,26.33"/>
	<path fill="#FBD132" d="M59.352,42.145c0,8.161-6.616,14.778-14.779,14.778c-8.162,0-14.777-6.617-14.777-14.778
		c0-8.164,6.615-14.78,14.777-14.78C52.735,27.365,59.352,33.981,59.352,42.145"/>
	<path fill="#FBD132" d="M80.22,33.757c0,10.941-8.87,19.812-19.811,19.812c-10.942,0-19.811-8.87-19.811-19.812
		s8.868-19.812,19.811-19.812C71.35,13.945,80.22,22.815,80.22,33.757"/>
	<g>
		<path fill="#010101" d="M44.572,57.387c-8.187,0-14.828-6.342-15.223-14.485c-5.657-3.654-9.028-9.831-9.028-16.572
			c0-10.873,8.846-19.719,19.719-19.719c6.072,0,11.688,2.718,15.455,7.47c1.599-0.397,3.251-0.599,4.914-0.599
			c11.179,0,20.274,9.095,20.274,20.275c0,11.181-9.096,20.275-20.274,20.275c-1.85,0-3.679-0.248-5.44-0.738
			C52.137,55.935,48.456,57.387,44.572,57.387z M30.319,43.49c0.675,7.34,6.777,12.97,14.253,12.97c3.466,0,6.76-1.232,9.361-3.484
			c-3.97-1.337-7.467-3.91-9.943-7.32l-0.003,0.001l-0.002-0.002c-1.29,0.261-2.616,0.395-3.945,0.395
			C36.616,46.049,33.273,45.167,30.319,43.49z M55.727,52.535c1.523,0.379,3.094,0.571,4.683,0.571
			c10.668,0,19.347-8.68,19.347-19.349c0-10.669-8.679-19.349-19.347-19.349c-1.456,0-2.899,0.163-4.306,0.481
			c2.395,3.351,3.656,7.29,3.656,11.44c0,2.936-0.629,5.758-1.868,8.391v0.001v0.002c1.26,2.258,1.924,4.819,1.924,7.421
			C59.815,46.047,58.37,49.706,55.727,52.535z M44.975,45.427c2.449,3.232,5.875,5.637,9.735,6.826
			c2.698-2.702,4.18-6.28,4.18-10.108c0-2.232-0.521-4.431-1.514-6.41C54.774,40.51,50.229,44.068,44.975,45.427z M30.26,42.378
			c3.9,2.384,8.659,3.252,13.154,2.441c-2.147-3.292-3.28-7.102-3.28-11.063c0-1.852,0.248-3.68,0.739-5.445
			c-6.196,1.655-10.616,7.349-10.616,13.833C30.257,42.223,30.258,42.301,30.26,42.378z M41.908,28.077
			c-0.563,1.833-0.847,3.743-0.847,5.68c0,3.901,1.149,7.649,3.331,10.858c5.348-1.27,9.968-4.928,12.447-9.854
			c-2.583-4.282-7.261-6.932-12.268-6.932C43.677,27.829,42.781,27.913,41.908,28.077z M40.04,7.537
			c-10.362,0-18.791,8.431-18.791,18.793c0,6.215,3.006,11.929,8.086,15.447c0.167-6.94,5.086-12.963,11.854-14.498l0.002-0.003
			c2.078-6.156,7.128-11.042,13.329-12.926C50.934,10.01,45.695,7.537,40.04,7.537z M44.572,26.902c5.126,0,9.927,2.608,12.734,6.86
			c1.013-2.347,1.525-4.842,1.525-7.433c0-4.077-1.276-7.94-3.695-11.193c-5.909,1.672-10.77,6.189-12.892,11.942
			C43.013,26.961,43.793,26.902,44.572,26.902z"/>
	</g>
	<path fill="#FBD132" d="M31.715,93.318c0,25.802-5.229,46.715-11.681,46.715c-6.45,0-11.679-20.913-11.679-46.715
		c0-25.8,5.229-46.714,11.679-46.714C26.485,46.604,31.715,67.519,31.715,93.318"/>
	<polygon fill="#FBD132" points="36.218,60.786 43.893,87.313 59.352,72.964 	"/>
	<polygon fill="#FBD132" points="70.085,59.118 61.241,141.368 93.441,124.351 	"/>
	<path fill="#010101" d="M152.642,46.073h-42.019v79.922h17.627v-21.639l24.748,0.351c0,0,4.451,0.349,4.451-6.283V51.483
		C157.449,51.483,158.339,46.073,152.642,46.073 M148.988,58.987l-0.03,33.266c0.357,4.426-2.904,3.729-2.904,3.729h-16.735V54.799
		h15.845C149.614,54.101,148.988,58.987,148.988,58.987"/>
	<line fill="#010101" x1="146.6" y1="96.196" x2="146.244" y2="96.196"/>
	<path fill="#010101" d="M210.517,46.073h-37.922c-4.097,0-3.74,3.655-3.74,3.655v14.065h12.932v-9.686h22.628
		c0,0,1.651-0.157,1.517,1.091l0.007,12.064c0,0,0.079,1.916-1.474,1.916h-29.378c0,0-5.762-0.164-5.697,4.999l0.086,25.845
		c0,0-0.756,4.765,4.544,4.628l34.98,0.009c0,0,4.908,0.413,5.293-3.482l0.021-50.202C214.313,50.974,214.696,46.073,210.517,46.073
		 M206.244,94.53c0,0,0,1.78-2.023,1.666h-16.493c-2.023,0.114-2.023-1.666-2.023-1.666V80.286c0,0,0.243-2.137,2.023-2.015h16.493
		c1.781-0.122,2.023,2.015,2.023,2.015V94.53z"/>
	<path fill="#010101" d="M214.313,100.827c-0.008,0.12-0.015,0.233-0.022,0.349"/>
	<path fill="#010101" d="M225.539,50.615v54.054h9.496V55.836c0,0-0.356-2.018,2.255-2.018h17.566v50.851h17.21V50.615
		c0,0,0.95-5.274-4.392-4.539l-37.032-0.07l-1.661,0.07C228.981,46.076,225.539,45.871,225.539,50.615"/>
	<path fill="#010101" d="M285.306,36.79c-1.603,0.096-1.601-1.319-1.601-1.319V24.151c0,0,0.188-1.699,1.601-1.604h13.093
		c1.412-0.095,1.602,1.604,1.602,1.604V35.47c0,0,0,1.415-1.602,1.319H285.306z"/>
	<rect x="283.381" y="46.017" fill="#010101" width="16.618" height="58.593"/>
</g>
</svg>
